<?xml version="1.0" encoding="UTF-8" standalone="no"?>
<svg
   version="1.1"
   style="display: block;"
   viewBox="0 0 2048 2048"
   width="1024px"
   height="1024px"
   id="svg76"
   sodipodi:docname="logo.svg"
   inkscape:version="1.4 (e7c3feb100, 2024-10-09)"
   transform="rotate(0) scale(1, 1)"
   xmlns:inkscape="http://www.inkscape.org/namespaces/inkscape"
   xmlns:sodipodi="http://sodipodi.sourceforge.net/DTD/sodipodi-0.dtd"
   xmlns="http://www.w3.org/2000/svg"
   xmlns:svg="http://www.w3.org/2000/svg">
  <defs
     id="defs76" />
  <sodipodi:namedview
     id="namedview76"
     pagecolor="#505050"
     bordercolor="#eeeeee"
     borderopacity="1"
     inkscape:showpageshadow="0"
     inkscape:pageopacity="0"
     inkscape:pagecheckerboard="0"
     inkscape:deskcolor="#d1d1d1"
     inkscape:zoom="0.80175781"
     inkscape:cx="512"
     inkscape:cy="711.56151"
     inkscape:window-width="1916"
     inkscape:window-height="1034"
     inkscape:window-x="0"
     inkscape:window-y="1098"
     inkscape:window-maximized="1"
     inkscape:current-layer="svg76" />
  <path
     transform="translate(0,0)"
     fill="#525688"
     d="M 347.927 540.169 C 367.471 532.344 390.868 515.917 410.042 505.678 C 449.118 484.812 490.654 466.469 532.218 451.164 C 558.218 441.63 584.609 433.197 611.32 425.886 C 624.57 422.28 637.925 418.512 651.331 415.569 C 670.118 411.445 687.912 411.223 704.63 400.561 C 732.123 382.791 757.124 361.436 778.973 337.059 C 788.779 326.309 823.669 278.925 831.645 274.441 C 833.965 273.137 835.997 272.902 838.531 273.765 C 845.114 276.008 852.263 286.172 855.65 292.151 C 866.657 311.586 864.642 330.832 858.779 351.534 C 874.424 345.9 901.751 334.943 918.108 342.8 C 922.921 345.113 926.164 349.221 927.76 354.275 C 934.942 377.029 917.844 411.443 907.917 431.562 C 962.133 454.364 1011.89 488.357 1048.99 534.426 C 1059.82 547.882 1067.8 564.474 1079 577.278 C 1083.08 581.94 1089.78 584.568 1094.74 588.286 C 1100.3 592.458 1105.66 597.083 1110.85 601.708 C 1141.8 629.312 1164.34 666.699 1179.95 704.889 C 1203.25 761.895 1217.55 841.315 1205.58 901.913 C 1202.69 916.51 1197.71 929.929 1191.96 943.578 C 1200.62 963.83 1212.57 984.133 1218.41 1005.37 C 1211.82 1015.34 1203.55 1024.35 1196.73 1034.24 C 1184.87 1051.45 1174.07 1069.51 1161.5 1086.2 C 1138.46 1116.81 1110.08 1144.08 1081.04 1168.96 C 1108.1 1206.01 1131.6 1252.73 1141.03 1297.79 C 1156.74 1370.3 1142.65 1446.09 1101.92 1508.11 C 1082.57 1537.37 1051.54 1572.82 1015.69 1580.29 C 993.912 1618.24 971.644 1650.78 939.236 1680.72 C 939.632 1680.92 940.024 1681.13 940.425 1681.32 C 947.099 1684.51 957.499 1683.93 964.962 1685.42 C 996.872 1691.79 1049.15 1707.69 1061.76 1740.91 C 1066.5 1753.4 1063 1765.83 1057.44 1777.35 C 1029.98 1834.24 931.377 1902.46 875.511 1931.3 C 854.836 1941.97 833.007 1950.45 811.014 1957.97 C 788.664 1965.6 765.317 1971.86 742.015 1975.76 C 666.864 1988.35 557.374 1987.29 487.96 1953.03 C 468.74 1943.54 447.776 1929.57 440.795 1908.16 C 436.264 1894.26 438.842 1878.42 445.565 1865.65 C 462.382 1833.71 502.214 1806.15 534.759 1792.65 C 545.062 1788.37 560.044 1785.43 568.446 1778.17 C 538.143 1772.2 511.918 1762.38 484.606 1748 C 427.377 1792.45 350.279 1818.73 278.096 1817.28 C 229.862 1816.31 181.29 1801.71 147.253 1766.21 C 180.417 1765.08 213.146 1749.23 243.304 1736.55 C 210.874 1732.93 179.881 1721.19 153.192 1702.42 C 121.238 1680.11 96.5573 1647.29 89.7963 1608.46 C 130.873 1630.03 248.999 1642.5 297.708 1641.67 C 293.581 1515.71 320.479 1387.38 392.009 1282.03 C 361.461 1268.96 332.952 1253 303.425 1237.94 C 303.168 1241.39 302.673 1244.59 301.88 1247.96 L 300.729 1248.53 C 290.944 1244.34 277.597 1222.98 272.676 1213.37 C 269.543 1218.7 265.682 1224.73 264.276 1230.76 C 264.17 1231.22 264.091 1231.67 263.987 1232.13 C 262.481 1238.68 263.435 1245.36 263.962 1252 C 261.875 1249.05 259.945 1245.98 258.18 1242.82 C 201.082 1142.52 199.745 934.207 214.11 822.57 C 220.095 776.068 230.548 730.915 243.071 685.806 C 233.472 690.448 223.698 693.842 213.051 694.988 C 186.38 697.859 159.408 689.185 138.646 672.41 C 126.208 662.36 108.674 642.558 107.513 625.851 C 107.192 621.231 108.443 617.276 111.666 613.904 C 126.876 597.993 162.432 598.392 182.869 597.76 C 168.962 591.609 156.804 583.86 146.991 572.059 C 130.452 552.168 122.447 525.124 124.948 499.446 C 125.849 490.199 128.327 473.301 136.19 467.51 C 143.677 461.997 160.343 475.828 167.084 480.133 C 221.33 514.78 284.645 532.051 347.927 540.169 z"
     id="path2" />
  <path
     transform="translate(0,0)"
     fill="#b8dce3"
     d="M 939.236 1680.72 C 939.632 1680.92 940.024 1681.13 940.425 1681.32 C 947.099 1684.51 957.499 1683.93 964.962 1685.42 C 996.872 1691.79 1049.15 1707.69 1061.76 1740.91 C 1066.5 1753.4 1063 1765.83 1057.44 1777.35 C 1029.98 1834.24 931.377 1902.46 875.511 1931.3 C 854.836 1941.97 833.007 1950.45 811.014 1957.97 C 788.664 1965.6 765.317 1971.86 742.015 1975.76 C 666.864 1988.35 557.374 1987.29 487.96 1953.03 C 468.74 1943.54 447.776 1929.57 440.795 1908.16 C 436.264 1894.26 438.842 1878.42 445.565 1865.65 C 462.382 1833.71 502.214 1806.15 534.759 1792.65 C 545.062 1788.37 560.044 1785.43 568.446 1778.17 C 603.361 1784.3 636.241 1785.85 671.553 1783.04 C 675.39 1804.08 678.687 1825.22 681.439 1846.44 C 675.103 1847.7 668.866 1849.16 662.708 1851.13 C 644.542 1856.94 625.618 1868.55 616.919 1886.2 C 614.096 1891.93 610.742 1901.97 613.731 1908.24 C 614.764 1910.41 616.078 1912.06 618.515 1912.64 C 628.429 1914.96 643.105 1901.12 650.887 1896.07 C 681.398 1876.26 714.571 1878.49 741.417 1903.48 C 749.062 1910.59 765.779 1935.01 775.66 1936.12 C 778.495 1936.44 780.719 1935.94 782.998 1934.23 C 787.064 1931.18 789.114 1925.74 789.543 1920.82 C 790.957 1904.59 777.059 1889.97 767.15 1878.67 C 778.864 1886.08 798.522 1908.99 809.413 1911.19 C 812.768 1911.87 816.095 1911.51 818.889 1909.42 C 821.761 1907.27 823.892 1903.79 824.129 1900.17 C 825.168 1884.32 802.843 1867.53 793.136 1857.16 C 802.422 1861.75 809.228 1869.19 818.104 1873.93 C 822.276 1876.15 829.61 1878.15 834.242 1876.26 C 836.942 1875.16 838.284 1873.77 839.327 1871.05 C 841.166 1866.25 839.047 1859.25 836.847 1854.91 C 829.743 1840.91 814.855 1833.33 800.692 1828.54 C 806.64 1822.8 813.78 1817.99 821.17 1814.31 C 847.639 1801.11 876.532 1803.84 900.295 1821.38 C 909.325 1828.05 918.469 1837.9 929.405 1841.07 C 932.173 1841.87 935.022 1841.79 937.46 1840.11 C 940.821 1837.79 943.039 1833.39 943.381 1829.39 C 944.51 1816.16 931.33 1803.53 923.161 1794.36 C 934.791 1800.37 950.622 1819.24 964.512 1817.51 C 967.27 1817.18 969.776 1815.75 971.456 1813.54 C 974.149 1810.01 975.522 1805.2 974.723 1800.81 C 971.748 1784.48 947.628 1776.37 935.896 1767.74 C 935.632 1767.55 935.373 1767.35 935.112 1767.15 C 947.343 1770.73 971.174 1785.1 982.317 1780.26 C 984.678 1779.23 986.682 1777.42 987.33 1774.84 C 988.338 1770.84 986.78 1766.7 984.839 1763.25 C 977.969 1751.04 962.948 1740.84 949.525 1737.43 C 919.53 1729.81 891.691 1746.85 866.832 1761.18 C 865.542 1751.18 866.059 1740.76 866.775 1730.73 C 893.362 1716.92 916.672 1700.29 939.236 1680.72 z"
     id="path3" />
  <path
     transform="translate(0,0)"
     fill="#b8dce3"
     d="M 739.871 427.422 C 763.718 425.203 789.861 426.88 813.611 429.965 C 885.714 439.898 952.813 472.431 1005.27 522.889 C 1019.04 536.306 1030.74 550.922 1042.44 566.123 C 1035.89 565.911 1029.29 565.614 1022.74 566.018 C 998.458 567.515 976.601 579.59 960.746 597.743 C 915.635 649.396 912.503 740.431 923.017 805.77 C 926.216 825.648 934.048 847.787 935.114 867.278 C 935.139 867.722 935.148 868.167 935.164 868.611 C 928.781 858.159 925.503 844.988 920.907 833.605 C 914.201 816.994 905.1 801.557 895.001 786.805 C 851.903 723.856 780.879 677.951 705.927 664.224 C 646.476 653.336 582.996 666.99 531.605 698.413 C 516.406 707.706 503.532 719.358 488.944 729.306 L 487.939 729.981 C 479.121 730.24 471.093 729.586 462.499 727.492 C 428.061 719.096 409.054 696.815 391.254 667.774 C 393.168 681.076 395.906 693.466 401.733 705.657 C 414.282 731.912 434.462 747.198 461.424 756.776 C 448.097 769.247 432.492 778.979 414.38 782.511 C 389.962 787.273 365.96 779.458 345.736 765.913 C 351.353 774.387 357.936 782.023 366.247 787.957 C 386.181 802.191 409.327 803.361 432.73 799.398 C 430.832 803.241 428.994 807.113 427.219 811.014 C 419.088 829.071 412.035 848.318 407.788 867.655 C 396.503 919.047 400.61 978.989 419.161 1027.98 C 443.987 1094.3 494.16 1148.04 558.629 1177.36 C 624.259 1206.09 698.537 1207.96 765.529 1182.56 C 820.083 1161.69 865.927 1122.91 895.544 1072.57 C 904.726 1056.85 911.844 1039.84 919.225 1023.23 C 931.607 1050.21 952.822 1093.1 974.97 1112.21 C 994.716 1104.5 1031.22 1078.79 1045.62 1063.06 C 1049.24 1059.11 1052.36 1055.17 1052.19 1049.59 C 1051.44 1047.72 1050.96 1046.63 1049.35 1045.32 C 1042.4 1039.68 1026.66 1043.22 1018.31 1044.21 C 1016.91 1027.04 1014.39 1010.02 1012.37 992.913 C 1027.31 995.366 1034.33 1000.72 1044.62 1011.22 C 1046.9 1013.55 1049.12 1016.14 1052.05 1017.67 C 1054.63 1019.01 1057.56 1019.57 1060.3 1018.28 C 1068.1 1014.58 1070.86 1001.46 1072.93 993.932 C 1086.12 997.564 1098.6 1000.22 1112.36 999.725 C 1139.32 998.746 1160.61 986.071 1178.66 966.712 C 1181.7 972.613 1193.9 992.799 1193.15 998.227 C 1174.48 1029.67 1153.93 1061.4 1130.15 1089.26 C 1068.91 1161 979.143 1220.26 892.808 1256.94 C 854.527 1273.21 813.705 1284.25 772.94 1292.21 C 659.63 1314.34 543.297 1311.36 433.868 1272.14 C 403.898 1261.2 374.513 1248.72 345.83 1234.74 C 328.703 1226.3 312.516 1216.26 294.759 1209.11 C 287.264 1196.61 280.465 1184.44 274.902 1170.96 C 270.735 1179.79 266.674 1188.69 262.186 1197.36 C 250.144 1166.06 244.44 1130 239.55 1096.92 C 217.869 953.076 228.855 806.195 271.692 667.176 C 287.204 651.952 306.999 640.152 320.82 623.247 C 312.895 626.864 305.226 634.021 298.112 639.169 C 278.533 653.334 257.124 667.402 234.221 675.36 C 212.609 682.869 189.929 681.639 169.387 671.515 C 150.086 662.002 132.227 645.654 125.212 624.999 C 162.806 608.541 203.847 608.897 244.039 608.53 C 211.008 599.504 178.592 588.646 157.899 559.396 C 141.93 536.823 139.371 512.338 143.866 485.705 C 162.062 498.433 182.156 509.158 202.323 518.417 C 320.415 572.634 460.763 570.514 581.643 525.698 C 580.023 525.378 516.93 537.554 508.769 538.675 C 467.633 544.325 427.034 544.831 385.627 545.676 C 393.436 540.643 402.167 536.459 410.359 532.039 C 433.478 519.566 456.733 508.041 480.812 497.538 C 565.42 460.632 647.285 433.479 739.871 427.422 z"
     id="path4" />
  <path
     transform="translate(0,0)"
     fill="#525688"
     d="M 543.969 599.38 C 551.247 598.809 558.143 599.068 565.334 600.403 C 594.585 605.834 623.877 625.639 640.555 650.126 C 629.877 645.55 619.576 640.088 608.625 636.145 C 576.449 624.56 544.904 629.259 514.564 643.571 C 487.233 658.291 471.254 679.043 454.389 704.435 C 457.297 679.074 463.947 655.646 479.899 635.234 C 496.497 613.994 517.371 602.525 543.969 599.38 z"
     id="path5" />
  <path
     transform="translate(0,0)"
     fill="#525688"
     d="M 945.718 514.286 C 953.086 513.764 960.367 513.517 967.622 515.155 C 985.643 519.224 1001.2 531.756 1010.82 547.242 C 1007.25 546.168 1003.66 545.182 1000.05 544.285 C 973.877 537.713 952.548 540.879 929.445 554.651 C 914.035 565.271 906.349 578.295 895.307 592.877 C 897.261 574.708 899.937 557.566 909.398 541.578 C 917.892 527.223 929.455 518.492 945.718 514.286 z"
     id="path6" />
  <path
     transform="translate(0,0)"
     fill="#ffffff"
     d="M 645.816 684.479 C 781.68 672.139 901.877 772.145 914.451 907.987 C 927.025 1043.83 827.227 1164.2 691.406 1177.01 C 555.254 1189.85 434.527 1089.75 421.922 953.577 C 409.317 817.403 509.621 696.849 645.816 684.479 z"
     id="path7" />
  <path
     transform="translate(0,0)"
     fill="#525688"
     d="M 750.102 806.347 C 751.063 806.211 752.03 806.105 752.998 806.038 C 779.773 804.188 805.63 814.108 825.689 831.577 C 851.063 853.674 865.622 884.525 867.616 917.977 C 869.408 948.053 861.623 976.81 841.294 999.52 C 823.645 1019.24 800.676 1030.15 774.369 1031.5 C 748.449 1032.08 725.081 1023.29 704.353 1007.97 C 678.919 989.17 663.026 959.946 658.404 928.877 C 653.939 898.864 660.801 868.958 679.18 844.637 C 696.121 822.218 722.811 810.177 750.102 806.347 z"
     id="path8" />
  <path
     transform="translate(0,0)"
     fill="#ffffff"
     d="M 725.114 839.748 C 748.744 838.122 769.185 856.034 770.676 879.672 C 772.168 903.311 754.141 923.65 730.494 925.008 C 707.037 926.354 686.896 908.503 685.416 885.053 C 683.936 861.603 701.673 841.361 725.114 839.748 z"
     id="path9" />
  <path
     transform="translate(0,0)"
     fill="#ffffff"
     d="M 787.265 925.16 C 790.608 924.933 793.805 924.927 797.041 925.938 C 802.469 927.632 807.477 931.607 809.825 936.854 C 811.653 940.936 811.829 945.302 810.002 949.422 C 807.702 954.608 803.224 957.135 798.209 959.199 C 795.283 959.252 792.257 959.309 789.43 958.427 C 783.772 956.662 778.438 951.934 775.89 946.601 C 773.996 942.637 773.531 938.22 775.283 934.116 C 777.554 928.794 782.174 927.031 787.265 925.16 z"
     id="path10" />
  <path
     transform="translate(0,0)"
     fill="#ffffff"
     d="M 1019.11 585.23 C 1022.06 584.95 1025.03 584.668 1028 584.597 C 1055.71 583.937 1081.17 601.036 1100.56 619.244 C 1159.23 674.338 1188.4 767.791 1190.44 846.798 C 1191.39 883.516 1185.91 929.662 1159.09 957.464 C 1144.29 972.798 1125.76 979.913 1104.67 980.129 C 1095.71 979.749 1086.63 977.757 1077.92 975.705 C 1078.73 957.804 1078.38 940.094 1073.91 922.631 C 1067.52 897.657 1052.47 877.119 1030.05 864.168 C 1005.61 850.047 976.546 848.161 949.663 855.484 C 948.612 851.812 947.685 848.106 946.884 844.372 C 932.113 776.727 927.343 681.973 966.383 622.325 C 979.103 602.891 996.209 589.868 1019.11 585.23 z"
     id="path11" />
  <path
     transform="translate(0,0)"
     fill="#525688"
     d="M 1094.66 715.381 C 1110.48 715.426 1124.11 720.268 1136.28 730.439 C 1153.7 745.142 1164.5 766.2 1166.29 788.919 C 1168.27 811.372 1163.65 839.776 1148.28 857.219 C 1138.39 868.437 1125.75 874.378 1110.94 875.227 C 1095.28 874.875 1082.03 871.114 1069.64 861.321 C 1050.34 846.069 1039.99 821.241 1037.44 797.256 C 1035.19 776.115 1039.04 754.128 1052.9 737.426 C 1063.79 724.309 1077.75 717.078 1094.66 715.381 z"
     id="path12" />
  <path
     transform="translate(0,0)"
     fill="#ffffff"
     d="M 1077.51 741.288 C 1083.15 741.735 1088.04 742.611 1093.11 745.253 C 1100.95 749.334 1107.37 756.424 1109.97 764.943 C 1112.16 772.107 1111.6 780.348 1107.77 786.864 C 1103.31 794.463 1096.52 797.264 1088.4 799.354 C 1081.57 799.892 1075.73 799.262 1069.77 795.687 C 1062.22 791.097 1056.82 783.686 1054.77 775.099 C 1052.97 767.64 1053.95 759.424 1058.19 752.943 C 1062.88 745.773 1069.37 742.836 1077.51 741.288 z"
     id="path13" />
  <path
     transform="translate(0,0)"
     fill="#ffffff"
     d="M 1119.38 807.565 C 1125.07 805.718 1131.18 808.815 1133.06 814.495 C 1134.94 820.175 1131.88 826.306 1126.21 828.218 C 1120.49 830.144 1114.3 827.053 1112.41 821.326 C 1110.51 815.6 1113.64 809.426 1119.38 807.565 z"
     id="path14" />
  <path
     transform="translate(0,0)"
     fill="#ffffff"
     d="M 794.599 1328.76 C 795.759 1327.03 795.418 1326.74 797.621 1326.3 C 804.238 1325 815.474 1325.2 821.214 1328.88 C 821.708 1330.36 822.211 1331.83 822.634 1333.34 C 823.339 1341.92 825.149 1350.38 828.021 1358.49 C 833.735 1374.39 844.434 1389.02 860.157 1396.14 C 870.737 1400.94 882.753 1401.54 893.635 1397.35 C 912.199 1390.2 920.954 1374.24 928.815 1357.28 C 929.857 1359.05 930.944 1360.78 932.076 1362.49 C 939.645 1374.05 948.928 1384.37 963.228 1387 C 971.848 1388.59 980.343 1386.45 987.334 1381.21 C 1000.37 1371.45 1006.16 1354.68 1008.57 1339.19 C 1019.6 1350.14 1029.84 1359.83 1043.99 1366.64 C 1044.05 1376.93 1043.79 1387.22 1043.19 1397.49 C 1041.32 1431.58 1038.76 1462.44 1011.31 1486.57 C 1005.21 1491.93 995.786 1498.51 987.297 1497.54 C 967.961 1495.35 965.848 1454.85 956.859 1445.99 C 955.042 1444.2 954.88 1444.1 952.354 1444.23 C 944.839 1454.53 942.354 1479.69 931.713 1495.41 C 927.202 1502.07 920.495 1509.17 912.104 1510.33 C 906.892 1511.04 901.636 1509.43 897.162 1506.82 C 872.734 1492.56 876.53 1450.36 866.723 1442.39 C 860.789 1445.43 846.667 1478.43 838.967 1487.61 C 833.799 1493.77 826.096 1500.53 817.643 1500.94 C 812.736 1501.18 808.418 1499.03 804.879 1495.76 C 790.444 1482.43 784.665 1445.17 785.302 1426.24 C 785.661 1415.56 789.174 1404.49 790.764 1393.87 C 794.025 1372.33 795.309 1350.54 794.599 1328.76 z"
     id="path15" />
  <path
     transform="translate(0,0)"
     fill="#ffffff"
     d="M 781.735 1486.11 C 786.659 1497.01 792.998 1506.98 804.794 1511.32 C 814.593 1514.93 825.933 1513.7 835.206 1509.15 C 848.095 1502.82 854.797 1491.83 861.841 1480.01 C 868.655 1496.56 875.786 1514.47 893.721 1521.78 C 902.764 1525.47 912.685 1525.07 921.549 1521.08 C 939.416 1513.03 946.128 1497.74 954.92 1481.69 C 960.415 1493.36 967.62 1506.24 980.605 1510.72 C 989.566 1513.82 999.035 1511.78 1007.18 1507.37 C 1013.93 1503.71 1019.55 1498.61 1024.99 1493.25 C 1015.86 1535.3 993.499 1577.44 968.526 1612.3 C 964.098 1618.48 958.883 1627.14 952.29 1631.2 C 948.184 1633.73 942.414 1634.67 937.793 1633.18 C 930.376 1630.78 925.592 1623.12 922.485 1616.46 C 918.069 1606.98 915.632 1580.35 909.589 1575.47 C 900.921 1578.84 879.263 1649.49 846.842 1636.41 C 839.918 1633.62 835.765 1627.49 833.087 1620.77 C 829.654 1612.15 825.905 1577.04 821.952 1573.86 C 806.561 1583.29 790.575 1636.79 759.107 1629.81 C 752.577 1628.36 747.078 1624.73 743.696 1618.89 C 730.535 1596.15 745.26 1567.83 741.18 1550.77 C 746.214 1541.29 751.841 1532.12 756.839 1522.62 C 761.924 1512.94 766.215 1502.15 772.51 1493.22 C 775.075 1489.58 777.229 1486.91 781.735 1486.11 z"
     id="path16" />
  <path
     transform="translate(0,0)"
     fill="#ffffff"
     d="M 655.11 1648.49 C 669.865 1645.98 708.661 1593.72 724.311 1582.66 C 723.626 1599.61 724.064 1619.59 736.387 1632.79 C 743.184 1640.07 752.36 1643.78 762.255 1644.04 C 777.319 1644.43 790.251 1637.25 800.674 1626.95 C 805.936 1621.75 810.399 1615.82 814.58 1609.74 C 818.03 1623.86 822.475 1638.54 835.754 1646.59 C 844.061 1651.63 853.779 1652.34 863.043 1649.79 C 882.53 1644.44 894.525 1628.64 904.61 1612.31 C 909.371 1625.61 915.245 1637.62 928.543 1644.3 C 932.393 1646.24 936.59 1647.19 940.783 1648.06 C 916.61 1671.38 876.538 1704.57 844.723 1716.46 C 844.63 1716.1 844.533 1715.73 844.445 1715.37 C 842.605 1707.79 842.948 1691.59 837.5 1686.64 C 823.467 1689.96 808.348 1731.22 774.293 1735.8 C 768.747 1736.55 762.476 1736.69 757.525 1733.69 C 751.482 1730.04 749.137 1722.93 747.734 1716.4 C 745.587 1706.4 746.945 1684.78 744.144 1678.28 C 741.648 1677.75 740.66 1678.02 738.536 1679.53 C 733.684 1682.96 729.515 1688.8 725.548 1693.27 C 713.608 1706.72 696.692 1722.77 677.141 1720.31 C 670.1 1719.42 663.156 1716.52 658.71 1710.82 C 649.652 1699.21 649.957 1680.82 652.085 1666.95 C 653.048 1660.79 654.056 1654.64 655.11 1648.49 z"
     id="path17" />
  <path
     transform="translate(0,0)"
     fill="#ffffff"
     d="M 792.864 1311.88 C 873.822 1292.35 945.665 1261.72 1015.48 1216.06 C 1018.23 1222.49 1020.49 1229.15 1022.87 1235.73 C 1034.57 1272.81 1039.72 1310.2 1043.1 1348.82 C 1024.07 1335.66 1015.96 1320.61 1000.66 1304.93 L 1000.3 1306.29 C 994.866 1326.95 995.273 1359.02 975.176 1371.89 C 972.376 1373.69 968.97 1374.64 965.673 1373.89 C 955.676 1371.61 946.395 1358.24 941.6 1349.73 C 937.215 1341.94 933.158 1328.79 925.589 1323.95 L 924.215 1324.16 C 917.13 1344.11 911.034 1373.53 890.348 1383.85 C 884.059 1386.99 877.295 1387.49 870.654 1385.17 C 856.735 1380.31 846.617 1366.5 840.723 1353.54 C 836.128 1343.44 832.733 1332.76 827.622 1322.89 L 824.996 1322.34 C 823.065 1323.8 822.779 1324.59 822.6 1326.94 C 822.44 1329.04 822.577 1331.23 822.634 1333.34 C 822.211 1331.83 821.708 1330.36 821.214 1328.88 C 815.474 1325.2 804.238 1325 797.621 1326.3 C 795.418 1326.74 795.759 1327.03 794.599 1328.76 C 794.11 1323.13 793.531 1317.5 792.864 1311.88 z"
     id="path18" />
  <path
     transform="translate(0,0)"
     fill="#b8dce3"
     d="M 792.864 1311.88 C 873.822 1292.35 945.665 1261.72 1015.48 1216.06 C 1018.23 1222.49 1020.49 1229.15 1022.87 1235.73 C 987.123 1267.5 928.492 1295.66 882.611 1308.51 C 869.673 1312.14 837.431 1318.18 827.622 1322.89 L 824.996 1322.34 C 823.065 1323.8 822.779 1324.59 822.6 1326.94 C 822.44 1329.04 822.577 1331.23 822.634 1333.34 C 822.211 1331.83 821.708 1330.36 821.214 1328.88 C 815.474 1325.2 804.238 1325 797.621 1326.3 C 795.418 1326.74 795.759 1327.03 794.599 1328.76 C 794.11 1323.13 793.531 1317.5 792.864 1311.88 z"
     id="path19" />
  <path
     transform="translate(0,0)"
     fill="#b8dce3"
     d="M 414.322 1289.74 C 418.012 1292.11 421.702 1293.5 425.784 1295.01 C 416.161 1311.84 405.943 1328.56 397.44 1345.99 C 368.773 1404.77 351.695 1470.74 342.73 1535.32 C 335.494 1587.44 332.722 1646.06 341.201 1698.09 C 342.587 1706.59 344.083 1718.63 349.662 1725.47 C 351.589 1727.83 353.818 1729.09 356.913 1729.39 C 369.422 1730.6 383.499 1727.55 395.865 1725.29 C 468.664 1711.99 535.592 1675.77 593.115 1630.12 C 665.541 1572.64 728.587 1485.09 751.578 1394.81 C 755.82 1377.85 758.756 1360.59 760.358 1343.18 C 760.975 1337.01 759.968 1326.93 761.636 1321.32 C 762.456 1318.56 763.335 1318.43 765.735 1317.35 C 768.552 1317.62 768.634 1317.59 770.663 1319.55 C 772.923 1325.24 772.311 1332.69 772.419 1338.8 C 771.665 1382.65 759.418 1426.46 741.374 1466.28 C 690.571 1578.39 581.292 1679.11 466.135 1722.29 C 443.745 1730.69 360.713 1755.81 340.424 1746.61 C 333.183 1738.32 331.64 1719.86 329.694 1708.97 C 305.333 1572.7 334.494 1404.37 414.322 1289.74 z"
     id="path20" />
  <path
     transform="translate(0,0)"
     fill="#b8dce3"
     d="M 119.837 1637.33 C 134.738 1640.83 149.074 1645.57 164.188 1648.43 C 208.474 1656.79 253.964 1657.08 298.872 1656.99 C 300.712 1688.52 306.96 1720.38 315.2 1750.82 C 316.94 1757.24 319.592 1768.1 325.9 1771.36 C 345.988 1781.73 416.826 1761.91 439.906 1754.9 C 407.632 1773.79 372.659 1785.54 336.229 1793.19 C 287.135 1801.38 232.236 1801.45 188.358 1774.86 C 200.226 1770.23 213.053 1767.46 225.164 1763.32 C 243.273 1757.14 261.552 1749.66 277.938 1739.75 C 286.669 1734.48 294.812 1728.19 303.346 1722.58 C 277.928 1725.55 248.66 1722.21 224.126 1715.29 C 181.475 1703.27 141.809 1676.42 119.837 1637.33 z"
     id="path21" />
  <path
     transform="translate(0,0)"
     fill="#6fb9e1"
     d="M 746.195 1320.41 C 746.988 1320.56 746.477 1320.39 747.449 1321.43 C 744.956 1346.35 733.314 1387.97 719.373 1409.01 C 687.594 1456.96 628.664 1491.63 573.013 1502.74 L 572.048 1502.64 L 571.811 1501.66 C 596.658 1470.61 609.66 1425.57 610.019 1386.27 C 627.583 1372.64 646.897 1350.93 652.893 1329.06 C 684.345 1329.34 715.185 1325.23 746.195 1320.41 z"
     id="path22" />
  <path
     transform="translate(0,0)"
     fill="#b8dce3"
     d="M 966.717 866.315 C 980.549 864.138 996.41 866.349 1009.53 871.042 C 1029.95 878.16 1046.61 893.247 1055.71 912.859 C 1068.31 939.983 1066.27 971.023 1056.3 998.551 C 1050.46 994.163 1044.74 990.209 1038.26 986.829 C 1003.15 972.036 962.355 976.011 925.887 964.511 C 926.23 953.42 928.182 942.059 929.214 930.981 C 930.914 913.813 931.721 896.569 931.633 879.318 C 943.115 872.434 953.514 868.5 966.717 866.315 z"
     id="path23" />
  <path
     transform="translate(0,0)"
     fill="#6fb9e1"
     d="M 597.772 1395.88 L 598.57 1396.69 C 598.473 1402.27 596.758 1408.1 595.554 1413.56 C 589.925 1439.12 581.894 1463.72 567.064 1485.57 C 541.077 1523.86 495.382 1542.19 451.473 1550.38 L 450.87 1549.03 C 465.822 1527.21 476.347 1505.94 484.065 1480.55 C 489.257 1463.47 491.613 1447.43 500.776 1431.72 C 535.151 1432.85 570.149 1414.91 597.772 1395.88 z"
     id="path24" />
  <path
     transform="translate(0,0)"
     fill="#a1c4cf"
     d="M 835.555 293.645 C 843.192 300.758 847.556 313.394 847.956 323.546 C 848.828 345.668 835.634 367.892 820.905 383.385 C 835.802 377.209 895.411 351.414 908.105 356.538 C 910.362 357.45 911.267 358.924 911.939 361.188 C 916.263 375.764 900.078 411.069 893.658 424.621 C 883.072 421.222 872.402 418.302 861.665 415.429 C 816.763 403.858 771.256 403.196 725.3 406.304 C 770.057 380.481 805.576 334.671 835.555 293.645 z"
     id="path25" />
  <path
     transform="translate(0,0)"
     fill="#6fb9e1"
     d="M 704.632 1452.99 C 704.582 1458.87 683.148 1488.97 678.72 1495.49 C 637.48 1556.16 588.179 1607.54 512.946 1621.84 C 512.919 1621.46 533.871 1586.68 535.852 1582.49 C 544.849 1562.97 551.133 1542.32 554.529 1521.1 L 561.592 1513.82 C 563.679 1513.88 565.767 1513.93 567.855 1513.96 C 618.215 1514.68 669.245 1487.35 704.632 1452.99 z"
     id="path26" />
  <path
     transform="translate(0,0)"
     fill="#6fb9e1"
     d="M 515.518 1318.69 C 516.093 1319.23 516.283 1319.28 516.558 1320.09 C 520.482 1331.6 498.27 1407.88 490.57 1420.7 C 484.632 1430.58 475.239 1437.38 465.797 1443.63 C 435.34 1463.82 409.825 1470.68 375.354 1479.21 L 374.584 1477.91 C 379.87 1451.78 387.319 1425.18 396.96 1400.32 C 453.989 1384.11 477.962 1361.57 515.518 1318.69 z"
     id="path27" />
  <path
     transform="translate(0,0)"
     fill="#6fb9e1"
     d="M 539.904 1533.25 L 540.369 1534.09 C 533.378 1559.38 522.653 1583.84 506.803 1604.89 C 477.158 1644.25 430.304 1665.42 382.575 1672.11 C 405.907 1643.28 416.85 1609.12 424.6 1573.4 C 431.897 1568.37 438.575 1562.89 444.819 1556.61 C 446.783 1557.16 448.756 1557.68 450.738 1558.16 C 481.181 1565.52 514.71 1548.57 539.904 1533.25 z"
     id="path28" />
  <path
     transform="translate(0,0)"
     fill="#ffffff"
     d="M 531.451 1747.14 C 534.405 1744.12 562.254 1732.16 570.22 1727.22 C 585.5 1717.74 599.937 1705.83 614.27 1694.94 C 620.633 1690.1 626.802 1684.26 633.993 1680.75 L 635.307 1681.22 C 635.472 1682.82 635.599 1684.29 636.113 1685.83 C 636.217 1686.14 636.348 1686.45 636.465 1686.76 C 638.033 1701.39 642.726 1715.47 654.656 1725.02 C 663.859 1732.39 675.817 1735.26 687.43 1733.79 C 705.038 1731.57 718.643 1721.82 731.123 1709.88 C 734.031 1721.93 738.088 1736.26 749.043 1743.55 C 751.888 1745.45 755.296 1746.74 758.434 1748.08 C 678.853 1765.02 610.636 1771.15 531.451 1747.14 z"
     id="path29" />
  <path
     transform="translate(0,0)"
     fill="#b8dce3"
     d="M 501.867 1734.74 C 608.94 1679.37 688.729 1609.25 748.729 1503.66 C 758.981 1485.61 766.725 1466.68 776.053 1448.23 C 776.04 1461.79 776.957 1473.35 781.735 1486.11 C 777.229 1486.91 775.075 1489.58 772.51 1493.22 C 766.215 1502.15 761.924 1512.94 756.839 1522.62 C 751.841 1532.12 746.214 1541.29 741.18 1550.77 C 734.671 1553.82 730.947 1559.77 728.551 1566.34 C 726.582 1571.74 725.593 1577.08 724.311 1582.66 C 708.661 1593.72 669.865 1645.98 655.11 1648.49 C 648.024 1652.06 642.677 1657.4 640.008 1664.95 C 637.52 1671.98 637.279 1679.42 636.465 1686.76 C 636.348 1686.45 636.217 1686.14 636.113 1685.83 C 635.599 1684.29 635.472 1682.82 635.307 1681.22 L 633.993 1680.75 C 626.802 1684.26 620.633 1690.1 614.27 1694.94 C 599.937 1705.83 585.5 1717.74 570.22 1727.22 C 562.254 1732.16 534.405 1744.12 531.451 1747.14 C 521.378 1743.53 511.503 1739.39 501.867 1734.74 z"
     id="path30" />
  <path
     transform="translate(0,0)"
     fill="#6fb9e1"
     d="M 480.564 1453.88 C 482.406 1462.63 464.873 1500.45 460.553 1508.96 C 438.937 1551.58 402.267 1571.54 358.335 1585.85 C 354.851 1568.32 367.914 1508.4 371.846 1487.76 C 415.382 1489.08 444.942 1478.62 480.564 1453.88 z"
     id="path31" />
  <path
     transform="translate(0,0)"
     fill="#6fb9e1"
     d="M 527.615 1320.54 C 563.503 1326.89 599.899 1328.73 636.249 1330.02 C 623.152 1356.78 601.894 1373.67 577.661 1390.07 C 555.716 1405.84 529.235 1414.98 503.829 1423.57 C 518.208 1394.6 528.072 1352.56 527.615 1320.54 z"
     id="path32" />
  <path
     transform="translate(0,0)"
     fill="#6fb9e1"
     d="M 1041.13 1200.04 C 1041.24 1200.1 1041.36 1200.14 1041.46 1200.21 C 1051.02 1207.24 1074.62 1265.49 1079.04 1278.98 C 1082.54 1289.99 1085.39 1301.18 1087.59 1312.52 C 1101.15 1381.75 1090.93 1438.75 1051.46 1497.42 C 1048.76 1501.65 1046.09 1505.68 1042.84 1509.53 C 1047.9 1485.23 1056.14 1462.24 1059.83 1437.5 C 1069.62 1372.02 1062.04 1265.85 1029.79 1207.29 L 1041.13 1200.04 z"
     id="path33" />
  <path
     transform="translate(0,0)"
     fill="#a1c4cf"
     d="M 1063.62 1182.92 C 1064.25 1183.57 1064.37 1183.65 1065 1184.49 C 1073.01 1195.12 1079.39 1208.55 1085.7 1220.31 C 1113.97 1273.08 1130.15 1325.28 1122.32 1385.84 C 1114.2 1448.57 1081.77 1508.89 1031.56 1547.52 C 1030.91 1547.77 1030.18 1547.66 1029.48 1547.7 C 1028.91 1535.87 1051.73 1512.54 1058.5 1502.99 C 1064.97 1493.88 1071.13 1484.13 1076.37 1474.26 C 1089.55 1449.43 1099.81 1422.66 1104.03 1394.79 C 1115.09 1321.82 1091.3 1252.45 1048.04 1194.05 L 1063.62 1182.92 z"
     id="path34" />
  <path
     transform="translate(0,0)"
     fill="#a1c4cf"
     d="M 698.272 1780.46 C 699.523 1780.17 700.775 1780.23 702.056 1780.2 C 705.615 1786 707.568 1839.26 708.12 1849.02 C 718.683 1844.53 729.543 1840.76 740.624 1837.76 C 763.534 1831.56 789.106 1829.74 810.265 1842.7 C 818.066 1847.48 827.651 1856.2 829.656 1865.44 L 828.644 1866.79 C 821.344 1866.52 812.553 1858.47 806.245 1854.97 C 790.381 1846.16 771.601 1841.38 753.44 1843.03 C 740.505 1844.2 713.573 1849.24 704.879 1859.56 C 706.082 1862.55 714.843 1863.71 717.87 1864.41 C 739.519 1869.42 752.671 1876.97 767.147 1893.82 C 771.628 1900.22 780.638 1913.98 779.876 1921.97 C 779.601 1924.86 779.143 1925.11 776.974 1926.72 C 776.11 1926.65 775.204 1926.78 774.381 1926.51 C 772.19 1925.78 755.191 1903.63 751.086 1899.58 C 719.762 1868.71 680.502 1863.48 643.756 1888.81 C 638.092 1892.72 628.006 1903.92 621.65 1903.95 L 620.423 1902.18 C 620.451 1895.99 625.506 1888.3 629.145 1883.36 C 644 1863.22 669.353 1858.85 692.388 1855 C 690.253 1830.63 685.532 1806.27 680.621 1782.33 L 698.272 1780.46 z"
     id="path35" />
  <path
     transform="translate(0,0)"
     fill="#b8dce3"
     d="M 827.304 1747.98 L 828.392 1748.2 C 831.427 1751.68 831.352 1765.91 831.868 1770.92 C 818.939 1776.41 805.883 1782.84 795.908 1792.97 C 787.331 1801.68 783.41 1810.84 783.469 1823 C 760.571 1821.64 740.757 1826.89 719.332 1834.33 L 718.483 1834.56 L 717.221 1833.52 C 717.019 1814.94 715.458 1796.24 713.738 1777.74 C 752.541 1772.16 790.382 1760.85 827.304 1747.98 z"
     id="path36" />
  <path
     transform="translate(0,0)"
     fill="#a1c4cf"
     d="M 854.84 1736.05 C 858.241 1741.69 855.852 1768.62 855.672 1776.39 C 874.033 1769.32 889.158 1755.95 909.767 1749.32 C 925.793 1744.16 943.473 1742.94 958.797 1751.08 C 964.415 1754.06 976.717 1762.75 978.021 1769.26 C 978.303 1770.67 977.563 1771.07 976.8 1772.12 C 967.269 1770.64 957.047 1763.72 947.651 1760.65 C 922.295 1752.37 898.684 1758.23 875.608 1769.9 C 888.057 1768.88 900.834 1769.01 913.143 1771.27 C 931.994 1774.74 952.423 1783.02 963.213 1799.67 C 964.939 1802.34 965.81 1804.25 965.196 1807.39 L 962.968 1808.39 C 952.268 1808.14 942.956 1797.01 934.674 1791.1 C 929.965 1787.73 924.898 1785.22 919.66 1782.8 C 896.08 1773.51 876.408 1773.06 852.784 1781.93 C 871.659 1781.44 889.693 1782.98 905.921 1793.47 C 915.299 1799.54 931.284 1812.79 932.902 1824.32 C 933.256 1826.85 932.94 1827.96 931.336 1829.85 C 928.956 1830.15 927.396 1829.75 925.367 1828.54 C 911.474 1820.25 902.578 1809.3 886.018 1801.92 C 861.888 1791.01 833.861 1793.19 811.703 1807.69 C 806.175 1811.27 800.93 1818.36 794.945 1820.61 L 793.954 1819.24 C 793.771 1815.79 793.837 1812.76 795.244 1809.53 C 802.492 1792.92 827.737 1783.51 843.397 1777.36 C 841.789 1765.77 841.049 1754.05 840.238 1742.38 L 854.84 1736.05 z"
     id="path37" />
  <path
     transform="translate(0,0)"
     fill="#6fb9e1"
     d="M 445.162 1300.82 C 461.879 1306.98 479.688 1310.96 496.94 1315.29 C 478.776 1337.2 458.926 1354.22 434.52 1368.88 C 423.648 1375.43 412.25 1381.07 400.973 1386.88 C 413.746 1356.81 428.94 1329.12 445.162 1300.82 z"
     id="path38" />
  <path
     transform="translate(0,0)"
     fill="#b8dce3"
     d="M 927.568 997.538 C 934.999 1002.97 945.819 1019.82 954.469 1027.91 C 976.209 1048.25 1002.25 1057.78 1031.83 1056.89 C 1024.22 1063.49 1016.54 1069.71 1008.51 1075.77 C 998.437 1083.2 988.156 1090.03 977.109 1095.93 C 962.314 1079.16 936.519 1033.24 928.021 1012.01 C 925.639 1006.05 924.933 1003.62 927.568 997.538 z"
     id="path39" />
  <path
     transform="translate(0,0)"
     fill="#6fb9e1"
     d="M 415.08 1580.09 C 415.093 1580.39 415.132 1580.7 415.117 1581 C 414.896 1585.52 412.206 1591.13 410.627 1595.48 C 401.485 1620.67 379.511 1665.45 359.406 1682.03 C 356.229 1654.79 356.544 1627.77 356.696 1600.41 C 377.759 1597.02 396.15 1589.59 415.08 1580.09 z"
     id="path40" />
  <path
     transform="translate(0,0)"
     fill="#6fb9e1"
     d="M 483.482 1651.1 L 483.547 1651.75 C 480.798 1659.87 459.6 1681.13 451.939 1686.1 C 438.864 1694.57 379.503 1710.58 365.437 1707.72 C 363.007 1705.56 362.852 1702.6 362.249 1699.57 L 360.337 1688.34 C 366.869 1685.75 371.717 1682.52 377.17 1678.18 C 381.894 1680.35 386.65 1682.63 391.784 1683.63 C 423.457 1689.8 458.163 1667.34 483.482 1651.1 z"
     id="path41" />
  <path
     transform="translate(0,0)"
     fill="#6fb9e1"
     d="M 571.766 1619.26 L 572.158 1620 C 556.829 1631.53 493.216 1675.17 478.041 1675.49 C 492.745 1660.96 499.274 1640.69 510.433 1623.66 C 528.45 1633.38 553.595 1624.66 571.766 1619.26 z"
     id="path42" />
  <path
     transform="translate(0,0)"
     fill="#a1c4cf"
     d="M 740.66 1853.39 C 740.952 1853.36 741.243 1853.32 741.536 1853.3 C 761.604 1851.74 780.479 1860.03 795.334 1873.06 C 802.41 1879.27 813.324 1889.4 813.395 1899.49 C 813.408 1901.27 813.357 1900.74 811.909 1902.07 C 809.093 1901.88 807.814 1900.67 805.723 1898.97 L 804.897 1898.28 C 779.589 1871.84 757.486 1860.14 720.638 1857.33 C 727.332 1855.25 733.721 1854.15 740.66 1853.39 z"
     id="path43" />
  <path
     transform="translate(0,0)"
     fill="#525688"
     d="M 1579.41 603.209 C 1590.91 601.837 1601.79 603.235 1612.02 609.024 C 1625.69 616.769 1631.01 626.78 1635.08 641.434 C 1646.65 683.037 1656.95 725.127 1667.68 766.959 C 1672.06 784.046 1681.06 812.309 1682.74 828.287 C 1683.65 836.993 1681.8 846.338 1677.3 853.885 C 1673.07 860.994 1665.44 868.099 1657.99 871.542 C 1640.89 879.444 1611.42 884.935 1592.27 889.948 L 1474.6 921.534 C 1463.33 924.129 1452.08 923.997 1441.85 917.982 C 1436.02 914.554 1432.74 910.91 1429.94 904.857 C 1420.3 884.028 1412.14 845.837 1405.57 822.08 C 1394.79 783.066 1382.72 744.233 1372.69 705.045 C 1369.35 692.023 1370.93 679.788 1378.13 668.251 C 1382.52 661.227 1389.94 656.836 1397.41 653.623 C 1417.83 644.839 1441.74 640.443 1463.27 634.427 C 1501.64 623.702 1540.44 611.475 1579.41 603.209 z"
     id="path44" />
  <path
     transform="translate(0,0)"
     fill="#b8dce3"
     d="M 1581.36 627.141 C 1586.98 626.473 1592.82 626 1597.99 628.752 C 1605.56 632.787 1608.58 640.713 1610.92 648.458 C 1622.05 685.224 1630.74 723.167 1640.55 760.325 C 1646.04 781.11 1654.63 805.682 1658.03 826.432 C 1658.83 831.359 1659.38 835.735 1656.79 840.187 C 1654.56 844.012 1651.08 848.18 1646.96 850.003 C 1632.15 856.553 1605.59 861.667 1589.16 866.093 C 1549.87 876.649 1510.66 887.471 1471.52 898.556 C 1465.77 899.597 1459.27 901.147 1453.96 897.822 C 1451.91 896.536 1450.39 894.926 1449.48 892.672 C 1445.43 882.761 1442.96 871.327 1440.16 860.989 L 1424.98 805.112 L 1404.94 733.407 C 1400.89 718.99 1396.34 704.581 1393.39 689.899 C 1394.47 686.655 1395.69 683.38 1397.44 680.427 C 1398.91 677.947 1400.87 676.585 1403.51 675.534 C 1422.92 667.808 1444.87 663.739 1465.07 658.357 L 1581.36 627.141 z"
     id="path45" />
  <path
     transform="translate(0,0)"
     fill="#6fb9e1"
     d="M 1518.5 671.352 C 1534.14 671.36 1548.29 675.659 1561.12 684.626 C 1582.43 699.523 1594.7 722.765 1598.92 748.073 C 1603.12 773.248 1598.37 801.866 1583.06 822.703 C 1572.27 837.381 1557.17 846.692 1539.21 849.542 C 1522.14 850.927 1507.07 847.13 1493.52 836.448 C 1472.76 820.082 1460.9 791.397 1457.91 765.712 C 1455.06 741.24 1459.37 712.405 1475.33 692.803 C 1486.54 679.031 1501.32 673.058 1518.5 671.352 z"
     id="path46" />
  <path
     transform="translate(0,0)"
     fill="#b8dce3"
     d="M 1520.79 719.155 C 1523.99 719.132 1527.17 719.6 1530.22 720.542 C 1539.56 723.451 1546.83 731.783 1551.02 740.291 C 1557.12 752.657 1558.84 767.984 1554 781.022 C 1550.03 791.703 1543.35 797.947 1533.11 802.453 C 1527.21 802.987 1521.91 802.217 1516.71 799.192 C 1506.18 793.061 1500.13 781.077 1497.4 769.555 C 1494.47 757.15 1495.24 742.262 1502.34 731.397 C 1506.96 724.341 1512.71 720.962 1520.79 719.155 z"
     id="path47" />
  <path
     transform="translate(0,0)"
     fill="#525688"
     d="M 1775.96 929.219 C 1781.31 929.014 1785.52 929.692 1790.58 931.437 C 1811.18 938.538 1831.32 949.776 1851.19 958.82 L 1912.12 986.907 C 1922.96 991.903 1934.24 996.408 1944.83 1001.89 C 1953.52 1006.39 1959.46 1011.94 1962.12 1021.68 C 1964.54 1030.55 1959.93 1044.81 1957.25 1053.31 C 1952.23 1069.26 1945.35 1084.64 1938.89 1100.05 C 1928.54 1125.02 1917.71 1149.8 1906.42 1174.37 C 1901.01 1186.25 1896.45 1200.44 1889.52 1211.36 C 1883.89 1220.24 1874.42 1222.76 1864.79 1225 C 1858.64 1225.09 1853.4 1223.96 1847.61 1221.95 C 1818.9 1212.01 1790.65 1197.53 1762.75 1185.35 C 1741.34 1176.01 1715.85 1166.95 1695.66 1155.84 C 1687.8 1151.52 1680.41 1144.64 1678.14 1135.69 C 1676.6 1129.65 1677.24 1123.09 1678.87 1117.14 C 1682.42 1104.22 1689.02 1091.18 1694.04 1078.73 L 1731.2 989.057 C 1736.95 975.416 1742.85 954.851 1750.8 943.054 C 1756.52 934.577 1766.43 931.206 1775.96 929.219 z"
     id="path48" />
  <path
     transform="translate(0,0)"
     fill="#b8dce3"
     d="M 1779.79 952.03 C 1792.61 953.542 1909.88 1008.41 1926.64 1017.38 C 1931.49 1019.97 1936.16 1022.81 1939.94 1026.86 C 1943.35 1039.46 1916.2 1096.65 1910.25 1110.59 C 1904.11 1124.98 1878.64 1188.05 1872.22 1196.29 C 1869.23 1200.13 1865.2 1201.67 1860.8 1203.43 C 1845.36 1199.49 1829.64 1190.61 1814.93 1184.28 C 1792.6 1174.67 1770.6 1164.6 1748.4 1154.74 C 1735.86 1149.16 1722.79 1144.15 1710.53 1138.01 C 1706.7 1136.08 1703.3 1133.99 1700.12 1131.09 C 1699.29 1126.11 1701.25 1119.85 1702.82 1115.07 C 1710.57 1091.48 1721.57 1068 1730.88 1044.94 C 1741.66 1018.24 1752.11 988.807 1764.83 963.216 C 1768.3 956.251 1772.6 954.398 1779.79 952.03 z"
     id="path49" />
  <path
     transform="translate(0,0)"
     fill="#6fb9e1"
     d="M 1821.34 1014.28 C 1831.92 1012.77 1843.06 1014.49 1852.9 1018.59 C 1859.78 1021.46 1868.07 1026.04 1870.77 1033.47 C 1874.41 1043.47 1866.76 1058.82 1862.73 1067.93 C 1857.9 1063.01 1853.5 1058.65 1847.04 1055.85 C 1838.17 1051.94 1828.08 1051.86 1819.15 1055.64 C 1810.91 1059.09 1805.18 1065.86 1802.18 1074.17 C 1798.81 1083.51 1799.11 1093.13 1803.4 1102.14 C 1816.67 1129.96 1836.42 1112.24 1845.4 1115.64 L 1845.49 1119.25 C 1844.74 1126.95 1844.25 1136.94 1840.16 1143.69 C 1837.67 1147.83 1834.04 1150.24 1829.34 1151.29 C 1815.76 1154.33 1797.47 1149.18 1786.15 1141.49 C 1772.1 1131.96 1763.25 1117.05 1760.41 1100.43 C 1756.94 1080.96 1761.44 1060.92 1772.9 1044.8 C 1784.96 1028.08 1801.02 1017.68 1821.34 1014.28 z"
     id="path50" />
  <path
     transform="translate(0,0)"
     fill="#525688"
     d="M 1337.71 69.1629 C 1377.73 67.2202 1425.86 83.0751 1462.92 97.6236 C 1499.01 111.405 1533.21 129.693 1564.72 152.055 C 1571.25 156.619 1582.43 162.999 1585.38 170.683 C 1587.71 176.766 1574.85 187.103 1570.91 191.177 C 1546.43 216.508 1526.32 249.83 1511 281.52 C 1507.01 289.766 1503.89 298.398 1500.03 306.695 C 1498.78 309.391 1495.49 316.728 1492.56 317.378 C 1487.56 318.49 1480.75 313.952 1476.4 311.708 C 1436.27 291.557 1395.29 286.343 1350.96 289.374 C 1339.67 290.146 1328.18 292.917 1316.94 293.072 C 1314.41 293.107 1311.52 293.031 1309.78 290.896 C 1306.66 287.069 1307.11 278.932 1306.55 274.133 C 1305.15 262.078 1302.03 249.819 1298.36 238.266 C 1288.79 208.091 1273.77 181.136 1252.07 157.983 C 1245.46 150.932 1238.04 144.611 1231.49 137.528 C 1229.21 135.055 1228.43 134.26 1228.51 130.86 C 1237.75 115.71 1317.88 76.2917 1337.71 69.1629 z"
     id="path51" />
  <path
     transform="translate(0,0)"
     fill="#69d4ea"
     d="M 1350.77 85.8536 C 1419.83 91.7706 1498.45 127.571 1555.88 165.128 C 1549.02 164.903 1542.16 164.459 1535.3 164.108 C 1489.86 163.465 1448.92 165.904 1407.27 186.004 C 1392.79 148.848 1377.32 116.27 1350.77 85.8536 z"
     id="path52" />
  <path
     transform="translate(0,0)"
     fill="#6fb9e1"
     d="M 1422.83 191.9 L 1424.96 192.115 C 1439.28 206.049 1469.67 271.804 1476.4 292.119 C 1453.24 281.473 1429.46 275.91 1404.24 273.214 C 1380.46 270.93 1356.58 272.589 1332.75 273.357 C 1341.93 255.011 1375.21 207.826 1394.01 200.659 C 1395.98 201.616 1397.92 202.468 1399.96 203.246 C 1407.64 201.23 1415.7 195.555 1422.83 191.9 z"
     id="path53" />
  <path
     transform="translate(0,0)"
     fill="#69d4ea"
     d="M 1510.5 176.432 C 1527.26 175.888 1544.1 176.766 1560.83 177.802 C 1530.54 211.207 1507.82 248.781 1488.47 289.319 C 1473.67 252.926 1457.16 219.972 1436.48 186.479 C 1460.06 179.299 1485.99 177.658 1510.5 176.432 z"
     id="path54" />
  <path
     transform="translate(0,0)"
     fill="#69d4ea"
     d="M 1255.58 138.811 C 1303.41 141.612 1348.69 160.623 1386.89 188.939 C 1373.51 200.387 1360.95 212.746 1349.27 225.925 C 1338.49 238.296 1330.32 251.734 1322.84 266.265 C 1310.97 217.353 1293.36 173.679 1255.58 138.811 z"
     id="path55" />
  <path
     transform="translate(0,0)"
     fill="#6fb9e1"
     d="M 1332.82 88.8759 C 1358.37 100.941 1381.15 151.79 1390.73 177.618 C 1378.1 166.413 1363.5 157.818 1348.56 150.076 C 1320.97 136.739 1292.13 132.349 1262.58 125.882 C 1284.63 111.908 1309.3 100.196 1332.82 88.8759 z"
     id="path56" />
  <path
     transform="translate(0,0)"
     fill="#525688"
     d="M 1433.55 1043.14 C 1435.19 1043.36 1436.81 1043.71 1438.4 1044.16 C 1463.66 1051.52 1530.26 1168.21 1546.27 1196.25 C 1552.07 1206.39 1554.18 1213.02 1550.65 1224.55 C 1549.29 1228.99 1544.83 1232 1541.26 1234.7 C 1522.5 1248.9 1500.99 1260.82 1481.25 1273.77 C 1453.17 1292.19 1425.22 1312.64 1395.9 1328.91 C 1389.99 1330.11 1384.58 1329.49 1379.36 1326.28 C 1375.14 1323.69 1372.18 1319.51 1369.42 1315.49 C 1361.15 1303.4 1354.58 1289.99 1347.08 1277.39 C 1331.89 1252.09 1317 1226.61 1302.4 1200.97 C 1293.67 1185.58 1281.5 1167.67 1277.28 1150.4 C 1276.44 1146.93 1275.91 1143.79 1277.99 1140.69 C 1287.93 1125.84 1416.97 1046.86 1433.55 1043.14 z"
     id="path57" />
  <path
     transform="translate(0,0)"
     fill="#b8dce3"
     d="M 1434.9 1059.91 C 1435.78 1060.28 1436.19 1060.41 1436.96 1060.88 C 1452.62 1070.33 1530.42 1195.77 1536.05 1216.53 C 1523.23 1228.7 1503.45 1239.21 1488.55 1248.95 L 1392.63 1312.05 C 1391.28 1312.17 1389.92 1312.03 1388.57 1311.97 C 1382.64 1307.65 1297 1161.16 1291.81 1147.32 C 1299.74 1141.37 1308.81 1136.42 1317.23 1131.13 C 1334.68 1120.05 1352.27 1109.2 1369.99 1098.58 C 1391.5 1085.68 1412.69 1071.53 1434.9 1059.91 z"
     id="path58" />
  <path
     transform="translate(0,0)"
     fill="#6fb9e1"
     d="M 1393.79 1121.76 C 1401.6 1123.09 1483.97 1198.45 1493.81 1210.52 C 1485.77 1216.73 1476.84 1221.8 1468.74 1228.05 C 1461.89 1220.16 1454.47 1212.78 1446.55 1205.96 L 1434.53 1214.4 L 1420.49 1224.57 C 1422.67 1234.79 1423.53 1245.29 1425.63 1255.56 C 1417.15 1261.97 1408.09 1266.94 1398.47 1271.43 C 1392.48 1247.92 1389.04 1223.4 1384.91 1199.51 C 1381.2 1178.05 1376.68 1156.61 1374.61 1134.91 C 1380.49 1129.77 1387.11 1125.75 1393.79 1121.76 z"
     id="path59" />
  <path
     transform="translate(0,0)"
     fill="#b8dce3"
     d="M 1402.19 1161.69 C 1407.42 1165.66 1412.44 1170.7 1417.24 1175.2 C 1420.43 1178.19 1426.62 1183.36 1426.78 1187.82 L 1423.56 1190.26 L 1410.17 1198.07 C 1406.78 1186.09 1404.44 1173.92 1402.19 1161.69 z"
     id="path60" />
  <path
     transform="translate(0,0)"
     fill="#525688"
     d="M 1310.96 1608.18 C 1322.71 1607.49 1332.54 1613.41 1342.15 1619.42 C 1368.32 1635.78 1394.18 1653.92 1418.72 1672.64 C 1426.46 1678.54 1435.05 1684.4 1441.86 1691.36 C 1446.31 1695.9 1451.25 1701.67 1452.46 1708.1 C 1453.53 1713.82 1448.73 1722.04 1445.91 1726.99 C 1437.49 1741.74 1426.36 1755.45 1416.29 1769.13 C 1401.63 1788.75 1387.32 1808.64 1373.37 1828.77 C 1363.9 1842.22 1357.61 1854.25 1340.38 1857.24 C 1336.13 1856.29 1332.19 1854.93 1328.33 1852.92 C 1301.6 1839.04 1277.13 1818.53 1252.07 1801.75 C 1237.09 1791.73 1219.79 1783.45 1205.88 1772.09 C 1202.18 1769.08 1199.21 1765.17 1197.89 1760.54 C 1195.9 1753.58 1197.67 1747.38 1201.39 1741.37 C 1209.41 1728.4 1220.26 1716.21 1229.28 1703.77 C 1243.39 1684.28 1257.61 1664.86 1271.95 1645.53 C 1279.46 1635.38 1286.84 1623.53 1295.96 1614.84 C 1300.08 1610.92 1305.56 1609.4 1310.96 1608.18 z"
     id="path61" />
  <path
     transform="translate(0,0)"
     fill="#b8dce3"
     d="M 1311.19 1622.77 C 1338.38 1629.25 1411.27 1687.7 1436.66 1707.66 C 1434.45 1713.44 1431.82 1718.52 1428.43 1723.69 C 1412.14 1748.59 1393.14 1771.94 1375.39 1795.82 C 1365.9 1808.61 1357.49 1822.72 1347.34 1834.95 C 1345.28 1837.44 1343.49 1839.19 1340.67 1840.77 C 1315.22 1826.94 1291.83 1808.33 1267.98 1791.9 C 1250.63 1779.94 1232.46 1769.57 1214.83 1758.09 C 1214.27 1756.63 1213.82 1755.41 1214.16 1753.81 C 1214.64 1751.58 1216.03 1749.39 1217.32 1747.55 C 1229.22 1730.68 1242.55 1714.62 1254.62 1697.78 C 1269.81 1676.59 1284.13 1654.18 1300.19 1633.68 C 1303.48 1629.49 1307.08 1626.12 1311.19 1622.77 z"
     id="path62" />
  <path
     transform="translate(0,0)"
     fill="#6fb9e1"
     d="M 1328.27 1661.58 C 1336.23 1662.7 1345.62 1670.59 1352.31 1675.08 C 1339.54 1700.73 1325.69 1725.89 1313.95 1752.03 C 1326.19 1761.34 1340.25 1767.89 1352.38 1777.27 C 1349.34 1782.05 1343.26 1793.85 1337.75 1795.42 C 1315.54 1787.22 1294.39 1770.8 1274.56 1757.94 C 1282.57 1739.19 1293.4 1721.1 1303.35 1703.3 C 1311.15 1689.33 1318.57 1674.33 1328.27 1661.58 z"
     id="path63" />
  <path
     transform="translate(0,0)"
     fill="#525688"
     d="M 1529.12 1407.16 C 1533.13 1407.28 1537.03 1407.82 1540.7 1409.59 C 1544.16 1411.25 1546.9 1413.99 1549.07 1417.11 C 1556.78 1428.16 1562.31 1441.52 1568.82 1453.37 L 1595.56 1502.11 C 1603.4 1516.24 1612.28 1530.14 1617.33 1545.57 L 1617.07 1546.56 C 1615.66 1551.72 1613.73 1556.9 1609.63 1560.53 C 1603.14 1566.29 1594.13 1570.44 1586.65 1574.89 L 1543.01 1600.98 C 1525.08 1611.75 1507.93 1624.01 1489.83 1634.39 C 1484.89 1635.43 1480.91 1635.74 1476.41 1633.07 C 1472.17 1630.55 1469.49 1625.24 1467.05 1621.09 C 1454 1598.94 1443.28 1574.99 1431.43 1552.14 C 1424.02 1537.86 1405.98 1509.66 1402.9 1495.97 C 1401.72 1490.73 1401.77 1486.14 1404.93 1481.6 C 1417.45 1463.6 1507.4 1411.53 1529.12 1407.16 z"
     id="path64" />
  <path
     transform="translate(0,0)"
     fill="#b8dce3"
     d="M 1528.06 1421.82 C 1529.14 1421.99 1529.94 1422.06 1530.98 1422.55 C 1533.57 1423.78 1535.5 1426.47 1537.05 1428.79 C 1545.02 1440.73 1551.48 1454.53 1558.41 1467.15 C 1572.76 1493.31 1587.35 1519.6 1600.73 1546.25 C 1583.12 1562.38 1560.02 1573.64 1539.64 1586.03 C 1521.12 1597.27 1503.06 1609.25 1485.5 1621.94 C 1483.47 1622.16 1483.49 1622.62 1482.03 1621.01 C 1476.17 1614.56 1460.98 1581.25 1455.69 1570.93 C 1444.63 1549.05 1433.12 1527.39 1421.17 1505.99 C 1419.48 1502.92 1413.43 1494.14 1414.71 1490.63 C 1418.66 1479.81 1512.12 1428.14 1528.06 1421.82 z"
     id="path65" />
  <path
     transform="translate(0,0)"
     fill="#6fb9e1"
     d="M 1497.63 1469.12 C 1502.96 1468.92 1508.29 1468.5 1513.42 1470.34 C 1521.67 1473.31 1525.36 1480.32 1528.93 1487.73 C 1528.53 1491.52 1528.29 1495.12 1528.4 1498.93 C 1530.1 1500.05 1529.38 1499.88 1531.32 1500.06 C 1534.35 1500.34 1537.45 1500.31 1540.4 1501.18 C 1545.19 1502.58 1548.57 1508.11 1550.86 1512.19 C 1555.38 1520.28 1558.77 1530.91 1555.95 1540.12 C 1551.13 1555.81 1529.92 1563.85 1516.41 1570.66 L 1513.87 1572.17 C 1511.01 1573.89 1508.83 1575.67 1505.36 1575.73 C 1498.01 1569.26 1464.62 1505.1 1457.88 1491.8 C 1470.47 1483.29 1483.13 1474.02 1497.63 1469.12 z"
     id="path66" />
  <path
     transform="translate(0,0)"
     fill="#b8dce3"
     d="M 1522.06 1521.86 C 1525.56 1522.01 1527.08 1522.83 1529.91 1524.82 C 1530.99 1527.12 1531.74 1528.67 1530.9 1531.25 C 1528.63 1538.25 1523.36 1540.54 1517.3 1543.49 L 1515.28 1543.58 C 1511.97 1540.1 1510.2 1535.39 1508.14 1531.09 C 1512.52 1527.62 1517.31 1524.78 1522.06 1521.86 z"
     id="path67" />
  <path
     transform="translate(0,0)"
     fill="#b8dce3"
     d="M 1502.13 1488.96 C 1502.47 1489.01 1502.82 1489 1503.15 1489.11 C 1505.99 1490.07 1508.51 1495.14 1510.12 1497.67 C 1505.76 1503.73 1501.09 1508.48 1495.11 1512.91 C 1492 1507.47 1489.29 1501.89 1486.57 1496.25 C 1491.64 1493.06 1496.51 1490.99 1502.13 1488.96 z"
     id="path68" />
  <path
     transform="translate(0,0)"
     fill="#b8dce3"
     d="M 1577.72 1791.34 C 1597.99 1790.1 1620.04 1792.44 1637.59 1803.5 C 1645.35 1808.4 1653.34 1815.82 1655.09 1825.25 C 1656.31 1831.86 1654.22 1838.63 1650.37 1844.01 C 1639.7 1858.92 1619.17 1863.79 1602.22 1866.87 C 1579.27 1869.04 1554.22 1867.24 1535.04 1853.06 C 1528.04 1847.88 1521.84 1840.78 1520.84 1831.81 C 1520.09 1825.07 1522.59 1818.4 1526.87 1813.25 C 1538.32 1799.48 1560.61 1793.23 1577.72 1791.34 z"
     id="path69" />
  <path
     transform="translate(0,0)"
     fill="#b8dce3"
     d="M 1115.79 1908.42 C 1133.13 1908.2 1151.88 1910.78 1166.7 1920.43 C 1173.21 1924.67 1179.1 1930.85 1180.37 1938.79 C 1181.37 1945.08 1179.2 1951.21 1175.4 1956.19 C 1163.76 1971.44 1142.03 1975.91 1124.14 1977.98 C 1105.01 1978.12 1084.02 1976.08 1068.52 1963.58 C 1063.04 1959.17 1058.54 1952.97 1057.89 1945.79 C 1057.33 1939.54 1059.8 1933.54 1063.82 1928.84 C 1076.15 1914.44 1097.81 1909.67 1115.79 1908.42 z"
     id="path72" />
  <path
     transform="translate(0,0)"
     fill="#b8dce3"
     d="M 1766.58 1717.29 C 1780.61 1716.5 1794.66 1716.72 1806.71 1725.18 C 1811.08 1728.25 1815.05 1732.71 1815.9 1738.15 C 1816.52 1742.1 1815.32 1745.74 1812.92 1748.88 C 1806.29 1757.56 1793.46 1760.14 1783.25 1761.73 C 1769.42 1762.86 1753.84 1761.89 1741.89 1754.11 C 1737.33 1751.15 1733.3 1746.96 1732.36 1741.42 C 1731.73 1737.66 1732.81 1734.03 1735.05 1730.99 C 1741.83 1721.82 1755.9 1718.87 1766.58 1717.29 z"
     id="path75" />
  <path
     transform="translate(0,0)"
     fill="#b8dce3"
     d="M 1355.99 1917.34 C 1366.67 1916.69 1379.16 1918.9 1388.15 1924.82 C 1392.31 1927.57 1396.43 1931.72 1397.16 1936.87 C 1397.65 1940.27 1396.73 1943.28 1394.7 1946.01 C 1388.61 1954.17 1375.38 1956.9 1365.8 1958.13 C 1353.09 1958.59 1339.02 1958.46 1328.45 1950.31 C 1324.87 1947.56 1321.82 1943.66 1321.42 1939.02 C 1321.13 1935.66 1322.57 1932.31 1324.73 1929.79 C 1331.84 1921.49 1345.56 1918.52 1355.99 1917.34 z"
     id="path76" />
</svg>
